<?xml version="1.0" encoding="iso-8859-1"?>
<!-- Generator: Adobe Illustrator 16.0.0, SVG Export Plug-In . SVG Version: 6.00 Build 0)  -->
<!DOCTYPE svg PUBLIC "-//W3C//DTD SVG 1.1//EN" "http://www.w3.org/Graphics/SVG/1.1/DTD/svg11.dtd">
<svg version="1.1" id="Capa_1" xmlns="http://www.w3.org/2000/svg" xmlns:xlink="http://www.w3.org/1999/xlink" x="0px" y="0px"
	 width="612px" height="612px" viewBox="0 0 612 612" style="enable-background:new 0 0 612 612;" xml:space="preserve">
<g>
	<g>
		<path d="M139.091,306c0-38.417-31.129-69.545-69.545-69.545S0,267.583,0,306s31.129,69.545,69.545,69.545
			S139.091,344.417,139.091,306z M27.818,306c0-23.033,18.694-41.727,41.727-41.727c23.033,0,41.727,18.693,41.727,41.727
			s-18.694,41.727-41.727,41.727C46.512,347.727,27.818,329.033,27.818,306z"/>
		<path d="M612,306c0-38.417-31.129-69.545-69.545-69.545S472.909,267.583,472.909,306s31.129,69.545,69.545,69.545
			S612,344.417,612,306z M500.727,306c0-23.033,18.694-41.727,41.728-41.727s41.727,18.693,41.727,41.727
			s-18.693,41.727-41.727,41.727S500.727,329.033,500.727,306z"/>
		<path d="M375.545,306c0-38.417-31.129-69.545-69.545-69.545S236.455,267.583,236.455,306s31.129,69.545,69.545,69.545
			S375.545,344.417,375.545,306z M264.273,306c0-23.033,18.694-41.727,41.727-41.727s41.727,18.693,41.727,41.727
			S329.033,347.727,306,347.727S264.273,329.033,264.273,306z"/>
	</g>
</g>
<g>
</g>
<g>
</g>
<g>
</g>
<g>
</g>
<g>
</g>
<g>
</g>
<g>
</g>
<g>
</g>
<g>
</g>
<g>
</g>
<g>
</g>
<g>
</g>
<g>
</g>
<g>
</g>
<g>
</g>
</svg>
