<?xml version="1.0" standalone="no"?>
<!DOCTYPE svg PUBLIC "-//W3C//DTD SVG 20010904//EN"
 "http://www.w3.org/TR/2001/REC-SVG-20010904/DTD/svg10.dtd">
<svg version="1.0" xmlns="http://www.w3.org/2000/svg"
 width="16.000000pt" height="16.000000pt" viewBox="0 0 16.000000 16.000000"
 preserveAspectRatio="xMidYMid meet">
<metadata>
Created by potrace 1.11, written by Peter Selinger 2001-2013
</metadata>
<g transform="translate(0.000000,16.000000) scale(0.000739,-0.000739)"
fill="#000000" stroke="none">
<path d="M7667 19644 c-1 -1 -51 -4 -112 -8 -119 -7 -283 -40 -394 -80 -333
-120 -616 -353 -966 -796 -99 -124 -180 -221 -230 -274 -11 -12 -76 -84 -144
-161 -154 -173 -358 -377 -431 -432 l-55 -40 -2010 0 c-1105 0 -2048 -3 -2095
-7 -80 -7 -109 -12 -220 -38 -169 -39 -362 -134 -495 -242 -284 -233 -443
-547 -500 -986 -11 -87 -13 -1079 -12 -5930 2 -3204 6 -5840 9 -5858 4 -18 10
-52 13 -75 11 -70 24 -138 37 -181 6 -23 12 -43 13 -46 22 -78 33 -111 68
-190 187 -433 544 -731 988 -825 60 -13 93 -18 189 -30 49 -6 18965 -7 19020
0 219 24 469 119 669 253 142 95 310 271 409 427 53 85 146 297 158 360 1 6 7
30 14 55 21 77 35 154 47 250 10 82 10 11546 0 11655 -4 44 -9 89 -11 100 -2
11 -7 43 -11 70 -5 28 -9 52 -10 55 -1 3 -5 21 -9 40 -51 230 -187 510 -318
657 -191 213 -438 363 -698 424 -30 7 -57 14 -60 14 -3 1 -27 5 -55 10 -27 4
-59 10 -70 13 -11 3 -972 6 -2135 7 -1163 0 -2126 4 -2140 9 -127 42 -282 168
-470 381 -69 79 -190 234 -365 470 -235 317 -322 423 -450 549 -204 200 -438
327 -695 375 -30 6 -71 14 -90 18 -28 5 -6375 13 -6383 7z m6288 -1093 c96
-33 164 -108 470 -517 196 -262 383 -499 453 -574 165 -175 286 -289 397 -372
6 -4 24 -18 40 -31 158 -122 439 -251 592 -272 18 -3 54 -10 80 -17 38 -10
507 -13 2153 -13 1158 -1 2125 -5 2150 -9 147 -27 217 -114 258 -321 14 -72
15 -647 16 -5795 0 -4650 -2 -5727 -13 -5779 -34 -170 -133 -278 -291 -320
-34 -9 -2274 -11 -9465 -8 -5181 2 -9429 6 -9441 9 -147 43 -230 160 -262 370
-5 31 -8 2647 -7 5815 l1 5758 22 77 c25 91 41 124 78 161 60 60 -65 57 2234
59 l2105 3 90 28 c151 47 309 131 450 242 121 94 344 312 515 504 36 40 74 83
85 95 11 12 54 60 95 106 41 45 94 104 118 131 24 26 59 69 79 96 151 202 305
374 413 461 25 21 47 40 50 44 3 4 35 21 70 37 45 21 89 33 145 38 44 4 1475
8 3180 8 2604 0 3106 -2 3140 -14z"/>
<path d="M11389 16886 c-2 -2 -61 -6 -130 -10 -70 -4 -135 -8 -145 -10 -11 -2
-55 -7 -99 -11 -44 -4 -89 -9 -100 -10 -11 -2 -56 -9 -100 -15 -44 -6 -116
-18 -160 -26 -44 -8 -96 -17 -115 -20 -19 -3 -43 -7 -52 -10 -9 -3 -25 -7 -35
-9 -173 -35 -440 -108 -628 -170 -281 -94 -734 -293 -955 -420 -36 -21 -85
-49 -110 -63 -108 -61 -359 -224 -456 -296 -23 -17 -52 -38 -64 -46 -12 -8
-28 -19 -34 -25 -6 -5 -38 -30 -70 -54 -249 -186 -581 -500 -831 -786 -397
-455 -755 -1038 -982 -1600 -91 -224 -230 -652 -249 -765 -3 -14 -7 -33 -10
-42 -9 -29 -61 -271 -70 -323 -19 -116 -24 -145 -29 -180 -11 -74 -26 -190
-31 -245 -3 -30 -7 -73 -9 -95 -25 -227 -25 -874 -1 -1015 2 -14 7 -59 10
-100 4 -41 8 -86 10 -100 3 -14 12 -79 21 -145 42 -303 128 -666 232 -975 533
-1592 1732 -2869 3288 -3505 112 -46 219 -85 380 -140 188 -63 528 -150 705
-180 19 -3 53 -10 75 -15 22 -5 60 -11 85 -15 25 -3 52 -8 60 -10 8 -2 47 -7
85 -11 39 -3 72 -8 75 -9 3 -2 46 -6 95 -10 50 -4 99 -9 109 -11 126 -24 787
-24 1001 0 17 2 66 7 109 10 43 4 87 9 96 11 9 2 41 6 71 10 74 9 335 53 384
64 22 6 72 17 110 26 39 9 81 19 94 21 107 21 653 190 686 213 6 4 33 15 60
25 56 20 62 22 158 65 38 17 71 31 73 31 3 0 78 36 167 80 143 70 193 96 337
176 30 16 120 71 194 117 492 305 1008 753 1351 1171 22 27 47 56 55 65 59 63
314 413 374 512 15 24 53 86 86 138 33 51 60 94 60 96 0 2 23 43 50 91 55 94
185 353 239 474 110 247 247 641 307 878 17 71 55 233 59 257 3 17 8 37 10 45
2 8 6 26 9 40 2 14 11 63 19 110 9 47 18 108 22 135 3 28 8 57 10 65 2 8 6 42
10 75 3 33 8 74 11 90 5 32 10 92 21 255 10 132 10 677 0 790 -7 77 -12 130
-22 230 -4 47 -24 199 -30 230 -6 35 -25 150 -30 180 -7 51 -46 228 -70 325
-14 55 -28 110 -30 122 -28 127 -160 512 -248 723 -216 518 -526 1028 -892
1465 -155 186 -405 445 -574 595 -46 41 -89 80 -95 85 -6 6 -58 49 -116 95
-58 47 -109 89 -115 93 -43 36 -221 163 -315 226 -571 384 -1221 666 -1888
821 -92 21 -187 42 -212 46 -25 4 -47 8 -50 9 -3 1 -25 5 -50 9 -25 5 -53 10
-63 12 -30 5 -169 25 -212 30 -22 2 -56 6 -75 9 -19 2 -71 7 -115 10 -44 4
-91 9 -105 12 -28 5 -685 14 -691 9z"/>
<path d="M3467 15614 c-1 -1 -48 -5 -103 -8 -56 -4 -110 -8 -120 -10 -11 -2
-41 -7 -69 -10 -77 -11 -202 -44 -283 -77 -210 -83 -362 -244 -419 -442 -34
-117 -38 -160 -38 -397 1 -241 11 -299 71 -425 59 -122 155 -220 286 -287 59
-31 168 -74 213 -84 152 -35 236 -49 365 -60 41 -3 91 -8 110 -10 45 -4 515
-5 555 0 17 2 61 6 98 10 37 4 78 9 90 12 12 2 36 7 52 10 290 52 490 184 593
390 53 106 74 216 76 410 1 95 -1 209 -6 255 -46 453 -374 677 -1048 715 -103
6 -419 12 -423 8z m478 -638 c17 -3 50 -7 75 -11 131 -16 249 -50 280 -80 12
-12 16 -47 18 -166 5 -195 1 -216 -44 -235 -40 -17 -137 -40 -214 -50 -115
-16 -623 -8 -721 11 -13 3 -40 7 -59 10 -52 7 -149 33 -187 51 -38 19 -36 9
-35 222 1 168 6 179 92 208 123 42 226 52 525 48 132 -2 254 -5 270 -8z"/>
</g>
</svg>
